# xmcd
#
# Track frame offsets:
#	150
#	26165
#	47566
#	66005
#	103918
#	121966
#	140049
#	156873
#	184618
#	201718
#	215245
#	233394
#
# Disc length: 3319 seconds
#
# Revision: 2
# Processed by: cddbd v1.5.2PL0 Copyright (c) Steve Scherf et al.
# Submitted via: EZCDAudioConverter 2.2.0.1
#
DISCID=b50cf50c
DTITLE=Marquise Knox - Here I Am
DYEAR=2011
DGENRE=Blues
TTITLE0=Here I Am
TTITLE1=You Better Pray
TTITLE2=Two Can Play Your Game
TTITLE3=Tears Feel Like Rain
TTITLE4=Feel Like Goin' Home
TTITLE5=America's Blues
TTITLE6=Coming for Your Loving
TTITLE7=Can a Young Man Play the Blues?
TTITLE8=Love Me Through the Pain
TTITLE9=I Can't Be Satisfied
TTITLE10=I'm Bad
TTITLE11=Two Trains Running
EXTD=
EXTT0=
EXTT1=
EXTT2=
EXTT3=
EXTT4=
EXTT5=
EXTT6=
EXTT7=
EXTT8=
EXTT9=
EXTT10=
EXTT11=
PLAYORDER=
